<?xml version="1.0" encoding="UTF-8"?>
<svg id="Layer_1" data-name="Layer 1" xmlns="http://www.w3.org/2000/svg" viewBox="0 0 228.2 228.2">
  <defs>
    <style>
      .cls-1 {
        fill: none;
        stroke: #fff;
        stroke-linecap: round;
        stroke-miterlimit: 10;
        stroke-width: 6px;
      }

      .cls-2 {
        fill: #3056d3;
      }
    </style>
  </defs>
  <path class="cls-2" d="m114.1,228.2c63,0,114.1-51.1,114.1-114.1S177.1,0,114.1,0,0,51.1,0,114.1s51.1,114.1,114.1,114.1Z"/>
  <path class="cls-1" d="m151.6,146.5c1.1-.9,1.8-2.2,1.8-3.7,0-2.6-2.1-4.7-4.7-4.7,0,0-1,0-2.8,0-7.3,0-27.6.1-46.8,0-2.9,0-5.7.2-8.2.5-8,1-15.4,4.5-21.7,9.4s-3.1,2.2-4.8,3.1h0c-6.2,3.5-13.5,5.4-21.3,5-19.7-.9-35.9-16.6-37.4-36.3-1.8-23.2,16.5-42.6,39.4-42.6s4,.2,6,.5c3.3.5,6.5,1.4,9.4,2.7s1-.1,1-.7c.5-11.7,5.9-22.2,14.3-29.8,8.3-7.5,19.6-12.1,32.1-12.1,25.6,0,46.4,19.5,46.4,43.5s-.1,3.7-.4,5.6.7,1.1,1.2.7c7.2-6.4,16.6-10.3,26.9-10.3,22.5,0,40.8,18.6,40.8,41.6s-18.2,41.6-40.8,41.6-10.1-1-14.6-2.8m3.6-66.7c3-1.4,6.4-2.1,10.1-2.1,5.9,0,11.2,2,15.3,5.3m-112.6-35.6c4.9-5.1,12.1-8.3,20.1-8.3s2.2,0,3.3.2"/>
  <path class="cls-1" d="m83.6,58.6c4.9-5.1,12.1-8.3,20.1-8.3s2.2,0,3.3.2"/>
  <path class="cls-1" d="m119.6,51.6c13.2,5.5,22.4,15.5,22.8,30.5"/>
  <path class="cls-1" d="m170.9,91c3-1.4,6.4-2.1,10.1-2.1,5.9,0,11.2,2,15.3,5.3"/>
  <path class="cls-1" d="m151.6,146.5c-.8.6-1.8,1-2.9,1"/>
  <path class="cls-1" d="m148.7,165.6c2.6,0,4.7-2.1,4.7-4.7s-2.1-4.7-4.7-4.7"/>
  <path class="cls-1" d="m99,157c-2.6,0-4.7-2.1-4.7-4.7s2.1-4.7,4.7-4.7"/>
  <path class="cls-1" d="m99,175.1c-2.6,0-4.7-2.1-4.7-4.7s2.1-4.7,4.7-4.7"/>
  <line class="cls-1" x1="148.7" y1="165.6" x2="99" y2="165.6"/>
  <line class="cls-1" x1="99" y1="175.1" x2="148.7" y2="174.2"/>
  <line class="cls-1" x1="148.7" y1="156.1" x2="99" y2="157"/>
  <line class="cls-1" x1="148.7" y1="147.5" x2="99" y2="147.5"/>
  <path class="cls-1" d="m70.4,174.8c5.3,4,14.9,8.9,29.3,8.8,22.4-.2,46.2,0,49,0h.3"/>
  <path class="cls-1" d="m148.7,183.6c2.6,0,4.7-2.1,4.7-4.7s-2.1-4.7-4.7-4.7"/>
</svg>