<?xml version="1.0" encoding="UTF-8"?>
<svg id="Layer_1" data-name="Layer 1" xmlns="http://www.w3.org/2000/svg" viewBox="0 0 206.53 44.09">
  <defs>
    <style>
      .cls-1 {
        fill: #090e34;
        font-family: AcuminConcept-Bold, 'Acumin Variable Concept';
        font-size: 38.91px;
        font-variation-settings: 'wght' 700, 'wdth' 100, 'slnt' 0;
        font-weight: 700;
      }

      .cls-2 {
        letter-spacing: 0em;
      }

      .cls-3 {
        letter-spacing: -.01em;
      }

      .cls-4 {
        letter-spacing: -.02em;
      }

      .cls-5 {
        fill: #3056d3;
      }

      .cls-6 {
        fill: none;
        stroke: #fff;
        stroke-linecap: round;
        stroke-miterlimit: 10;
      }

      .cls-7 {
        letter-spacing: 0em;
      }

      .cls-8 {
        letter-spacing: 0em;
      }

      .cls-9 {
        letter-spacing: -.02em;
      }

      .cls-10 {
        letter-spacing: 0em;
      }

      .cls-11 {
        letter-spacing: 0em;
      }

      .cls-12 {
        letter-spacing: 0em;
      }
    </style>
  </defs>
  <path class="cls-5" d="m20,40c11.05,0,20-8.95,20-20S31.05,0,20,0,0,8.95,0,20s8.95,20,20,20Z"/>
  <g>
    <path class="cls-6" d="m26.14,25.61c.19-.14.31-.37.31-.63,0-.44-.36-.8-.8-.8,0,0-.17,0-.47,0-1.23,0-4.64.02-7.88,0-.5,0-.96.03-1.39.08-1.34.17-2.58.75-3.65,1.58-.25.19-.52.37-.8.53h0c-1.05.59-2.27.9-3.58.84-3.32-.16-6.04-2.8-6.3-6.11-.3-3.91,2.78-7.17,6.62-7.17.34,0,.68.03,1,.08.56.08,1.09.24,1.59.45.08.03.17-.02.18-.11.08-1.97.99-3.74,2.4-5.01,1.4-1.26,3.3-2.03,5.4-2.03,4.31,0,7.81,3.28,7.81,7.32,0,.32-.02.63-.06.94-.02.12.12.19.21.11,1.21-1.08,2.79-1.74,4.52-1.74,3.79,0,6.86,3.13,6.86,7s-3.07,7-6.86,7c-.87,0-1.7-.16-2.46-.46m.6-11.21c.51-.23,1.08-.36,1.69-.36.99,0,1.89.34,2.57.89m-18.94-5.99c.82-.86,2.04-1.4,3.39-1.4.19,0,.37.01.55.03"/>
    <path class="cls-6" d="m14.7,10.81c.82-.86,2.04-1.4,3.39-1.4.19,0,.37.01.55.03"/>
    <path class="cls-6" d="m20.76,9.64c2.23.93,3.78,2.61,3.84,5.12"/>
    <path class="cls-6" d="m29.39,16.26c.51-.23,1.08-.36,1.69-.36.99,0,1.89.34,2.57.89"/>
    <path class="cls-6" d="m26.14,25.61c-.14.11-.31.17-.49.17"/>
    <path class="cls-6" d="m25.65,28.81c.44,0,.8-.36.8-.8s-.36-.8-.8-.8"/>
    <path class="cls-6" d="m17.3,27.37c-.44,0-.8-.36-.8-.8s.36-.8.8-.8"/>
    <path class="cls-6" d="m17.3,30.41c-.44,0-.8-.36-.8-.8s.36-.8.8-.8"/>
    <path class="cls-6" d="m25.65,31.85c.44,0,.8-.36.8-.8s-.36-.8-.8-.8"/>
    <line class="cls-6" x1="25.65" y1="28.81" x2="17.3" y2="28.81"/>
    <line class="cls-6" x1="17.3" y1="30.41" x2="25.65" y2="30.26"/>
    <line class="cls-6" x1="25.65" y1="27.22" x2="17.3" y2="27.37"/>
    <line class="cls-6" x1="25.65" y1="25.78" x2="17.3" y2="25.78"/>
    <path class="cls-6" d="m12.48,30.37c.9.66,2.51,1.5,4.93,1.48,3.77-.03,7.77,0,8.25,0h.05"/>
  </g>
  <text class="cls-1" transform="translate(40.28 33.89) scale(.53 1)"><tspan class="cls-3" x="0" y="0">C</tspan><tspan class="cls-4" x="27.24" y="0">L</tspan><tspan class="cls-10" x="49.41" y="0">O</tspan><tspan class="cls-11" x="79.22" y="0">U</tspan><tspan x="107.54" y="0">D </tspan><tspan class="cls-7" x="145.59" y="0">K</tspan><tspan class="cls-8" x="172.16" y="0">I</tspan><tspan class="cls-9" x="184.73" y="0">T</tspan><tspan class="cls-3" x="206.75" y="0">C</tspan><tspan class="cls-2" x="233.99" y="0">H</tspan><tspan class="cls-12" x="262.82" y="0">E</tspan><tspan x="286.74" y="0">N</tspan></text>
</svg>